<svg width="126" height="202" viewBox="0 0 126 202" fill="none" xmlns="http://www.w3.org/2000/svg">
<path d="M0 62.0523C0 53.6906 1.54737 45.7691 4.6421 38.2876C8.17895 30.366 12.8211 23.7647 18.5684 18.4837C24.3158 12.7625 30.9474 8.36166 38.4632 5.28106C45.9789 1.76036 54.1579 0 63 0C71.4 0 79.3579 1.76036 86.8737 5.28106C94.8316 8.36166 101.684 12.7625 107.432 18.4837C113.179 23.7647 117.6 30.366 120.695 38.2876C124.232 45.7691 126 53.6906 126 62.0523V142.588C126 159.312 120.253 173.394 108.758 184.837C97.7053 196.279 83.7789 202 66.9789 202H24.5368V150.51H56.3684C68.3053 150.51 74.2737 143.908 74.2737 130.706V122.784C70.7368 124.105 66.979 124.765 63 124.765C54.1579 124.765 45.9789 123.004 38.4632 119.484C30.9474 116.403 24.3158 112.002 18.5684 106.281C12.8211 100.56 8.17895 93.9586 4.6421 86.4771C1.54737 78.9956 0 70.854 0 62.0523Z" fill="#FF5E3A"/>
</svg>
